<svg id="Layer_1" data-name="Layer 1" xmlns="http://www.w3.org/2000/svg" viewBox="0 0 800 800"><defs><style>.cls-1,.cls-2{fill:#fff;stroke:#fff;}.cls-1{stroke-miterlimit:10;}.cls-2{stroke-linejoin:round;stroke-width:20px;}</style></defs><title>mitch_smith_website_icon_white</title><path class="cls-1" d="M629.32,124.46c-105.71,0-159.45-7.6-211.42-14.94-52.66-7.45-107.11-15.14-214.22-15.14-43.09,0-62.72,48.1-62.72,92.8,0,102.43-7.14,156.08-14.26,206.59q13.26-32.38,28.52-68.38c3.38-35.67,5.74-78.85,5.74-138.21,0-18.89,4.07-37.39,11.16-50.75,7.76-14.64,18.38-22.05,31.56-22.05,105.7,0,159.44,7.59,211.42,14.94,52.65,7.44,107.11,15.14,214.22,15.14a130.47,130.47,0,0,1,17.45,1.17c11.14-4.45,22.37-8.41,33.59-11.89C664.89,127.48,646.85,124.46,629.32,124.46Zm72.23,110.33C700,295.21,695.68,336,690.85,372.13c-1.21,9-2.44,17.77-3.67,26.47l-.6,4.21c-7.25,51.38-14.55,105.74-14.55,210,0,18.89-4.06,37.38-11.16,50.75-7.76,14.63-18.38,22-31.55,22-105.71,0-159.45-7.6-211.42-14.94-52.66-7.45-107.11-15.15-214.22-15.15-18.89,0-37.39-4.06-50.75-11.15-11.61-6.16-18.68-14.12-21.11-23.72q-1.78,5.19-3.61,10.59s-3.58,2.19-11.21,6.08c14.34,26.09,51.56,38.2,86.68,38.2,105.7,0,159.44,7.6,211.42,15,52.65,7.45,107.11,15.14,214.22,15.14,43.09,0,62.71-48.1,62.71-92.8,0-105.71,7.6-159.44,15-211.42,6.32-44.71,12.82-90.7,14.64-169.11A195.55,195.55,0,0,0,701.55,234.79Z"/><path class="cls-1" d="M23.74,685.48a10,10,0,0,1-9.63-12.71c.28-1,28.12-98.9,103.34-282.78,9.23-22.55,18.84-45.6,28.57-68.5,11.31-26.66,23.12-53.94,35.1-81.09a10,10,0,0,1,4.36-4.74c1.54-.84,38.27-20.74,95.71-39.9a10,10,0,0,1,13,11.2c-.07.4-6.17,35.85-16.75,128.87,23.09-37.19,58.07-92,81-120.49a10,10,0,0,1,3-2.52c1.67-.91,41.81-22.48,114.77-43a10,10,0,0,1,12.54,11.39c-.65,3.62-17.13,92.07-123.22,395.29a10,10,0,0,1-5.1,5.7c-2.7,1.3-66.49,31.91-100.9,36.11a10,10,0,0,1-10.93-12.29c.2-.82,4.21-17,24.74-83.58C254.43,549.86,227.81,587.64,192,637a10,10,0,0,1-18-4.74c-.24-2.17-4.45-39.57-5.53-81.84-7.51,18.78-16.8,43.32-27.19,73.53-1.19,3.44-2.38,7-3.6,10.55a10.07,10.07,0,0,1-4.25,5.32c-.16.09-4,2.43-11.89,6.45C107.7,653.29,77,667.69,27,684.93A10,10,0,0,1,23.74,685.48ZM198,251.66c-11.46,26-22.75,52.11-33.58,77.64-9.7,22.83-19.27,45.79-28.48,68.26C80,534.31,50.49,623.06,39.06,659.43c37.94-13.85,61.81-25.11,73.4-31,3.27-1.66,5.76-3,7.5-4l2.4-7.05c27.52-79.94,47-119.84,47.76-121.5a10,10,0,0,1,19,5c-2.14,35,.24,76.46,2.35,102.74,74.44-103.32,103.14-148.45,103.44-148.93a10,10,0,0,1,18,8.36C289.22,538,277.69,576.72,272.33,595.37c27.39-7.33,64.06-24,75.71-29.39C420.61,358.32,454.49,240.56,465.6,193.79c-52.85,16-85.27,31.82-92.88,35.71C337.3,274.27,271.83,383.33,271.17,384.44a10,10,0,0,1-18.52-6.21c9.28-86.39,15.87-135.11,19.26-158.09C233.49,233.93,206.61,247.23,198,251.66Z"/><path class="cls-2" d="M690.85,372.13c-1.21,9-2.44,17.77-3.67,26.47l-.6,4.21C690.54,391.36,691.9,381.06,690.85,372.13Z"/><path class="cls-2" d="M686.58,402.81c-7.25,51.38-14.55,105.74-14.55,210,0,18.89-4.06,37.38-11.16,50.75-7.76,14.63-18.38,22-31.55,22-105.71,0-159.45-7.6-211.42-14.94-52.66-7.45-107.11-15.15-214.22-15.15-18.89,0-37.39-4.06-50.75-11.15-11.61-6.16-18.68-14.12-21.11-23.72,27.63-80.27,47.28-120.35,47.28-120.35-3.52,57.55,4.84,130.78,4.84,130.78,87.33-120.39,119.38-171,119.38-171-38.87,123.18-45,148.33-45,148.33,33.16-4,97.77-35.19,97.77-35.19,107-306,122.82-393.75,122.82-393.75-72.71,20.41-112.7,42.12-112.7,42.12C330.3,266.33,262.59,379.29,262.59,379.29c13.8-128.46,21.76-174,21.76-174-57.25,19.1-94.08,39.19-94.08,39.19q-18.77,42.51-35.05,81c3.38-35.67,5.74-78.85,5.74-138.21,0-18.89,4.07-37.39,11.16-50.75,7.76-14.64,18.38-22.05,31.56-22.05,105.7,0,159.44,7.59,211.42,14.94,52.65,7.44,107.11,15.14,214.22,15.14a130.47,130.47,0,0,1,17.45,1.17c-82.23,32.75-159.08,91.06-184.72,164.86-46.33,134.28,123.8,74.94,112.68,112.11-9,30-80.11,52-114.81,59.75-7,65.45-6.67,104-6.67,104C492.16,568.26,596,522.73,644.72,468.18,666.34,444,680,421.82,686.58,402.81Z"/><path class="cls-2" d="M701.55,234.79C700,295.21,695.68,336,690.85,372.13c-2.24-19-15.42-31.8-37.87-36-50.05-9.62-97.66-3.52-84.87-28.15C588.51,268.7,654.42,243,701.55,234.79Z"/><path class="cls-1" d="M453.25,596.4a10,10,0,0,1-10-9.9c0-1.6-.27-39.94,6.73-105.21a10,10,0,0,1,7.77-8.7c8.38-1.86,37.86-8.87,65.2-20.89,31.28-13.75,39.75-25.16,41.94-31.17-4.73-2.11-18.36-3.15-27.68-3.87-28-2.15-66.4-5.09-84-32-12-18.34-12.23-43.68-.57-77.47,12.76-36.74,37.69-71.11,74.1-102.17,32.17-27.45,72.41-51.22,116.37-68.73,11.21-4.46,22.76-8.55,34.33-12.14,33.94-10.51,68-16.61,98.52-17.64a10,10,0,0,1,9.42,14.18c-.2.43-20.19,43.91-47.38,114.84a10,10,0,0,1-9.21,6.42c-2,0-4.18.12-6.44.28a184.88,184.88,0,0,0-19,2.38c-49.69,8.61-109,34.71-126.28,67.92a11.13,11.13,0,0,0-.79,1.83c4.65,3,22.37,4.82,35.5,6.14s27.93,2.81,43.18,5.74c26.41,5,43.16,21.27,45.91,44.69a9.88,9.88,0,0,1,0,2.49c-1.21,9.08-2.43,17.73-3.68,26.54l-.6,4.23a9.88,9.88,0,0,1-.45,1.84c-7.32,21.25-22.07,44.39-43.85,68.78-46.67,52.28-140.55,95.61-185.67,116.44-3.3,1.52-6.33,2.92-9,4.18A10,10,0,0,1,453.25,596.4Zm15.87-105.93c-3.74,36.66-5.11,64.22-5.6,80.17,45.62-21.1,131.56-61.86,173.74-109.11,19.41-21.74,33.07-42.84,39.56-61.09l.46-3.25c1.18-8.33,2.33-16.53,3.48-25.06-2.12-14.08-12.09-22.89-29.63-26.2-14.41-2.77-28.77-4.21-41.45-5.49-27-2.73-44.93-4.53-51.54-16.76-2.21-4.07-3.8-10.9,1.1-20.33,10.19-19.63,31.33-37.81,61.12-52.59a303.1,303.1,0,0,1,79.48-25.82A206,206,0,0,1,721,222.32l.7,0c17-44,30.94-76.84,38.76-94.71a380.18,380.18,0,0,0-77.09,15.74c-11.07,3.43-22.12,7.34-32.85,11.61-90,35.83-156.86,95.22-179,158.87-9.37,27.13-9.91,47.31-1.62,59.94,12.25,18.66,43.64,21.07,68.86,23,21.27,1.63,36.63,2.81,43.52,12.86,2.17,3.14,4.28,8.46,2,15.89C573.43,461.92,497.05,483.67,469.12,490.47Z"/></svg>